<svg xmlns="http://www.w3.org/2000/svg" viewBox="0 0 140.69 132.33"><defs><style>.cls-1{fill:#3498db;}</style></defs><title>xamarin-logo-vertical</title><g id="Layer_2" data-name="Layer 2"><g id="Layer_1-2" data-name="Layer 1"><g id="Page-1"><g id="xamarin-logo"><path id="Logo" class="cls-1" d="M16.71,131.82l-5.35-10.27L5.89,131.82H0l8.34-13.25L.83,105.4h6l4.87,10,5.28-10h5.46L14.7,118.49l7.84,13.33Zm19.08,0v-2.88h-.08a6.93,6.93,0,0,1-6.17,3.39,6.78,6.78,0,0,1-4.85-1.67,6,6,0,0,1-1.77-4.53q0-6.08,6.82-6.91l6.09-.84q0-4.26-4-4.26A11.42,11.42,0,0,0,25,116.44v-4.16A13.07,13.07,0,0,1,28.34,111a16.32,16.32,0,0,1,4-.57q8.06,0,8.06,8.16v13.24H35.79Zm-4.46-9.56a5.46,5.46,0,0,0-3,1,3,3,0,0,0-.83,2.35,2.72,2.72,0,0,0,1,2.14,3.73,3.73,0,0,0,2.5.82,4.55,4.55,0,0,0,3.46-1.45,5.06,5.06,0,0,0,1.36-3.61v-1.88l-4.5.59Zm39.13,9.56V120a8.06,8.06,0,0,0-.92-4.32,3.5,3.5,0,0,0-3.22-1.43A3.76,3.76,0,0,0,63.21,116a6.66,6.66,0,0,0-1.26,4.1v11.73h-4.7v-12.2q0-5.34-4.09-5.34A3.82,3.82,0,0,0,50,115.89a6.77,6.77,0,0,0-1.22,4.2v11.73h-4.7V110.94h4.7v3.22h.08a7.26,7.26,0,0,1,6.6-3.73,6.28,6.28,0,0,1,3.67,1.1,5.72,5.72,0,0,1,2.26,3,7.64,7.64,0,0,1,7-4.1q6.8,0,6.8,8.48v12.91Zm20.36,0v-2.88h-.08a6.93,6.93,0,0,1-6.17,3.39,6.78,6.78,0,0,1-4.85-1.67A6,6,0,0,1,78,126.13q0-6.08,6.82-6.91l6.09-.84q0-4.26-4-4.26A11.42,11.42,0,0,0,80,116.44v-4.16A13.07,13.07,0,0,1,83.37,111a16.32,16.32,0,0,1,4-.57q8.06,0,8.06,8.16v13.24H90.82Zm-4.46-9.56a5.46,5.46,0,0,0-3,1,3,3,0,0,0-.83,2.35,2.72,2.72,0,0,0,1,2.14,3.73,3.73,0,0,0,2.5.82,4.55,4.55,0,0,0,3.46-1.45,5.06,5.06,0,0,0,1.36-3.61v-1.88l-4.5.59Zm24.86-6.73a5.1,5.1,0,0,0-2.73-.71,3.94,3.94,0,0,0-3.32,1.75,7.64,7.64,0,0,0-1.26,4.57v10.69h-4.7V110.94h4.7V115H104q1.51-4.43,5.34-4.43a4.9,4.9,0,0,1,1.89.29v4.67Zm4.68-9.26a2.88,2.88,0,0,1-2-.78,2.57,2.57,0,0,1-.83-1.94,2.62,2.62,0,0,1,.83-2,3,3,0,0,1,4.09,0,2.69,2.69,0,0,1,0,3.9A2.91,2.91,0,0,1,115.91,106.27Zm-2.4,25.55V110.94h4.7v20.88Zm22.48,0V120.09q0-5.81-4.17-5.81a4.52,4.52,0,0,0-3.52,1.61,5.9,5.9,0,0,0-1.41,4.06v11.87h-4.7V110.94h4.7v3.34H127a7.38,7.38,0,0,1,6.76-3.85q7,0,7,8.57v12.83H136Z"/></g></g><path class="cls-1" d="M120.32,41.53,98.75,4a8.09,8.09,0,0,0-6.84-4H48.78a8.09,8.09,0,0,0-6.84,4L20.37,41.53a8.19,8.19,0,0,0,0,7.93L41.94,87a8.09,8.09,0,0,0,6.84,4H91.92a8.09,8.09,0,0,0,6.84-4l21.57-37.57A8.19,8.19,0,0,0,120.32,41.53ZM91.34,69H83.9a1,1,0,0,1-.84-.51L70.47,46a1,1,0,0,1-.12-.36,1,1,0,0,1-.12.36L57.6,68.51a1,1,0,0,1-.81.51H49.35a1,1,0,0,1-.84-1.45L60.83,45.5,48.51,23.4A1,1,0,0,1,49.17,22h7.62a1,1,0,0,1,.81.48L70.23,45a1,1,0,0,1,.12.36,1,1,0,0,1,.12-.36L83.06,22.46A1,1,0,0,1,83.9,22h7.44a1,1,0,0,1,.84,1.42L79.87,45.5,92.19,67.57A1,1,0,0,1,91.34,69Z"/></g></g></svg>