<svg width="67" height="72" viewBox="0 0 67 72" fill="none" xmlns="http://www.w3.org/2000/svg">
<path d="M36.4763 0.768139C34.6745 -0.258353 32.3256 -0.253737 30.5222 0.768139C28.3005 2.01013 26.0788 3.25221 23.8571 4.4943C17.0467 8.30176 10.2362 12.1093 3.42471 15.9147C1.66691 16.8515 0.481314 18.7637 0.500223 20.7484V51.2557C0.48753 53.2792 1.73426 55.2099 3.53739 56.1338C4.5163 56.6613 5.48471 57.2091 6.45305 57.7568C8.05143 58.6609 9.64964 59.5649 11.2947 60.3777C14.3461 61.8966 18.1637 62.2325 21.2524 60.6485C23.7596 59.3356 24.8732 56.4159 24.8701 53.7326C24.8828 47.3738 24.8807 41.0149 24.8786 34.656C24.8774 30.9465 24.8761 27.2371 24.8778 23.5276C24.9374 23.0802 24.6059 22.6019 24.1241 22.6127C22.9698 22.5942 21.814 22.6019 20.6597 22.6096C20.2235 22.5678 19.7979 22.9348 19.8308 23.3789C19.8227 28.6187 19.8239 33.8594 19.8252 39.1003C19.8263 43.8647 19.8274 48.6293 19.8215 53.3936C19.8466 54.7775 18.9237 56.1076 17.607 56.5751C16.115 57.128 14.4523 56.6992 13.098 55.9776C12.2846 55.5228 11.4709 55.0686 10.6573 54.6144C9.06659 53.7263 7.4759 52.8382 5.88656 51.946C5.7273 51.8713 5.595 51.7501 5.50747 51.5986C5.41993 51.4472 5.38138 51.2728 5.39699 51.099C5.39699 47.7439 5.39716 44.3888 5.39733 41.0337C5.39768 34.3237 5.39802 27.6139 5.39699 20.9049C5.35321 20.4992 5.60007 20.1338 5.9679 19.9681C10.9772 17.1751 15.9851 14.3781 20.9932 11.581C24.985 9.35157 28.9769 7.12203 32.9698 4.89436C33.1261 4.78867 33.311 4.73225 33.5003 4.73252C33.6895 4.7328 33.8743 4.78975 34.0303 4.8959C38.0068 7.11377 41.9827 9.33289 45.9586 11.552C50.9836 14.3567 56.0087 17.1614 61.0352 19.9638C61.4044 20.1292 61.6406 20.5007 61.603 20.9049C61.6025 24.5605 61.6027 28.2164 61.603 31.8724C61.6034 38.2809 61.6039 44.6895 61.5999 51.0975C61.6266 51.4537 61.445 51.7988 61.1166 51.9553C56.4794 54.5511 51.8387 57.1413 47.1981 59.7316C42.9675 62.093 38.7368 64.4544 34.5087 66.82C34.4542 66.8501 34.3983 66.8826 34.3414 66.9157C33.9558 67.1398 33.5191 67.3936 33.0871 67.1467C31.7559 66.4008 30.434 65.6383 29.1121 64.8758C28.1263 64.3072 27.1405 63.7386 26.151 63.1769C25.8992 63.0177 25.5785 62.9495 25.3159 63.1274C25.253 63.161 25.1901 63.1946 25.1272 63.2283C24.151 63.7502 23.1702 64.2747 22.108 64.6091C21.9729 64.6632 21.8294 64.707 21.6852 64.751C21.2932 64.8705 20.8952 64.9919 20.6426 65.3289C20.9519 65.7493 21.4071 65.9998 21.8579 66.2479C21.9769 66.3134 22.0955 66.3787 22.2111 66.4469C23.4455 67.1546 24.6809 67.8609 25.9163 68.5674C27.392 69.4112 28.8678 70.255 30.3421 71.1011C32.1253 72.2284 34.5214 72.3087 36.3621 71.2668C40.6461 68.8753 44.9295 66.4825 49.213 64.0896C53.9618 61.4367 58.7108 58.7838 63.4611 56.1325C65.2596 55.2035 66.5125 53.2805 66.4998 51.2555V20.7484C66.5172 18.8039 65.3769 16.9258 63.6722 15.9752C58.3639 13.0036 53.0542 10.0358 47.7444 7.06793C43.9882 4.96846 40.232 2.86898 36.4763 0.768139Z" fill="#68A063"/>
<path d="M50.1061 23.6733C46.5607 21.7519 42.3429 21.6495 38.403 21.9006V21.9003C35.5567 22.1852 32.5631 22.9812 30.4893 25.048C28.3624 27.1259 27.8995 30.481 28.9097 33.1935C29.6337 35.1101 31.456 36.3566 33.3405 37.0159C35.7681 37.884 38.3176 38.1524 40.8681 38.4209C43.1943 38.6658 45.5213 38.9108 47.7572 39.611C48.6706 39.9176 49.7342 40.3867 50.0139 41.3931C50.2722 42.5853 49.989 43.971 49.0335 44.7993C47.3162 46.1762 44.9875 46.2741 42.8589 46.3636C42.7425 46.3685 42.6266 46.3734 42.5115 46.3784C42.2866 46.3749 42.0599 46.3724 41.8318 46.3699C39.3438 46.3425 36.7005 46.3135 34.5574 44.9447C33.3451 44.1287 32.8227 42.6843 32.6102 41.308C32.5867 40.879 32.2458 40.4856 31.786 40.5182C30.6349 40.5044 29.4837 40.5074 28.3326 40.5167C27.9308 40.4826 27.5132 40.7721 27.4912 41.1872C27.399 43.6456 28.3279 46.1928 30.2297 47.8275C32.4538 49.7707 35.4518 50.52 38.3328 50.8452C41.3966 51.1408 44.5276 51.1239 47.5445 50.458C49.8124 49.9348 52.0862 48.9717 53.6474 47.2021C55.5725 45.0516 55.951 41.8498 55.0876 39.1712C54.4276 37.1726 52.5413 35.8904 50.6131 35.2309C47.991 34.32 45.2503 33.9608 42.5084 33.6013C40.3801 33.3224 38.251 33.0433 36.1761 32.506C36.1409 32.4951 36.1053 32.484 36.0695 32.4729C35.267 32.2242 34.3288 31.9334 33.9772 31.1064C33.5876 29.9033 33.9191 28.4093 35.0107 27.6692C36.4325 26.6922 38.2372 26.5484 39.9155 26.4602C39.9755 26.4596 40.0357 26.459 40.0959 26.4584C42.3419 26.4364 44.714 26.4131 46.7672 27.4308C48.1406 28.1275 48.9363 29.5581 49.2648 31.0026C49.3257 31.427 49.6075 31.8696 50.0924 31.8511C50.8745 31.8669 51.6568 31.864 52.439 31.861C52.8 31.8597 53.161 31.8583 53.522 31.8588C53.9147 31.8868 54.3447 31.6621 54.4214 31.2549C54.3729 28.236 52.8511 25.1457 50.1061 23.6733Z" fill="#68A063"/>
</svg>
