<svg width="56" height="72" viewBox="0 0 56 72" fill="none" xmlns="http://www.w3.org/2000/svg">
<path d="M25.3811 0H37.1535V54.4973C31.1143 55.6433 26.6801 56.1023 21.8649 56.1023C7.49131 56.1023 0 49.6041 0 37.1415C0 25.138 7.95033 17.3407 20.2598 17.3407C22.1709 17.3407 23.623 17.4937 25.3811 17.9527V0ZM25.3811 27.4301C24.1013 26.9979 22.7564 26.7908 21.4059 26.8181C15.4416 26.8181 12.0035 30.4873 12.0035 36.9105C12.0035 43.1808 15.2916 46.6189 21.3309 46.6189C22.6299 46.6189 23.701 46.5439 25.3811 46.3129V27.4271V27.4301ZM55.8863 18.1808V45.4729C55.8863 54.8753 55.1993 59.3875 53.1352 63.2846C51.2241 67.0318 48.701 69.4019 43.5018 72L32.5694 66.8008C37.7686 64.3557 40.2917 62.2136 41.8967 58.9255C43.5798 55.5623 44.1138 51.6622 44.1138 41.4197V18.1778H55.8863V18.1808ZM44.1138 0.0630026H55.8863V12.1415H44.1138V0.0630026Z" fill="#29A071"/>
</svg>
