<svg width="116" height="46" viewBox="0 0 116 46" fill="none" xmlns="http://www.w3.org/2000/svg">
<path d="M107.557 0.0912121C104.52 0.168023 101.492 1.08015 99.0462 2.91881C97.3574 4.09228 96.2506 5.85911 95.175 7.57606C95.0977 7.69941 95.0206 7.82251 94.9435 7.94511C92.3217 12.3973 90.6656 17.3214 89.0238 22.203L88.8348 22.7648C86.418 29.4377 83.4807 36.0818 78.8097 41.5018C78.9347 41.6507 79.0596 41.803 79.1855 41.9564C80.0986 43.069 81.0626 44.2435 82.473 44.6654C84.7225 44.4158 86.6616 43.0188 88.4193 41.6746C92.8515 37.8821 96.1423 32.9758 99.2086 28.0551C104.94 18.8906 110.275 9.48133 115.5 0.0192031C115.117 0.0180036 114.734 0.0171044 114.35 0.0162053C113.201 0.0135041 112.051 0.0108029 110.901 0C109.222 2.9368 107.566 5.88808 105.911 8.83962C101.244 17.1588 96.5759 25.48 91.39 33.4847C92.4897 30.9539 93.7291 28.4877 94.9685 26.0215C95.8662 24.2352 96.7639 22.4489 97.6086 20.6381C99.0291 17.7336 100.427 14.8178 101.825 11.9021C103.717 7.95546 105.61 4.00904 107.557 0.0912121Z" fill="#0080C5"/>
<path d="M102.609 0.086458C96.8872 -0.139174 90.5111 0.720145 86.2173 4.90153C84.1349 6.95622 82.9313 9.73101 82.3725 12.5778C80.3618 19.7116 78.0453 26.759 75.6907 33.7776C75.8749 35.132 76.4003 36.3983 76.9239 37.6604L76.9241 37.661C77.1335 38.1656 77.3426 38.6697 77.5295 39.1783C80.7821 34.3728 83.1128 29.0153 85.0854 23.5761C85.2059 23.2193 85.3262 22.862 85.4466 22.5046C87.133 17.4953 88.8332 12.445 91.5571 7.89235C92.9278 5.67444 94.5183 3.45173 96.8395 2.16035C98.5869 1.09698 100.577 0.596928 102.543 0.103156L102.609 0.086458Z" fill="#0080C5"/>
<path d="M38.0956 0.965526C40.5207 0.982326 42.9477 0.999139 45.3715 0.916886C43.442 1.32974 41.5267 1.80501 39.6688 2.48191C38.6467 1.87702 37.5673 1.36815 36.4545 0.955292C37.0007 0.95794 37.547 0.961727 38.0935 0.965515L38.0956 0.965526Z" fill="#0080C5"/>
<path d="M53.112 0.963941C52.3153 0.971803 51.5204 0.979645 50.7353 0.945718C52.8464 1.32017 54.9336 2.10268 56.5288 3.58129C58.4702 5.22078 59.5834 7.56243 60.6562 9.81908L60.7079 9.92778C62.4226 13.8595 63.6882 17.9737 64.825 22.1023C66.425 27.7095 68.3832 33.2398 71.0531 38.4294C71.1342 38.2616 71.2157 38.0939 71.2973 37.926C72.0515 36.3741 72.8104 34.8126 73.2931 33.1534C71.7838 25.8996 69.7157 18.761 67.5999 11.6608C66.3486 7.57064 63.7981 3.51408 59.7193 1.83384C57.6213 0.919453 55.3593 0.94177 53.112 0.963941Z" fill="#0080C5"/>
<path d="M18.9216 8.76125C22.4559 4.8439 26.9981 1.08978 32.5241 0.988966C25.9664 3.10126 21.2571 8.57883 17.5938 14.1812C11.3705 23.6625 8.39974 34.8577 6.70421 45.9713C4.63929 45.976 2.57437 45.976 0.509442 45.976H0.5C4.17763 32.563 9.6702 19.2939 18.9216 8.76125Z" fill="#0080C5"/>
<path d="M41.2051 3.15876C41.0487 3.2266 40.8933 3.29397 40.739 3.36045C44.9993 7.86348 47.9558 13.4611 50.0382 19.2747C50.5723 20.6547 50.9893 22.0736 51.4063 23.4923C51.8059 24.852 52.2055 26.2116 52.708 27.5366C54.6615 32.9566 57.3361 38.2613 61.4436 42.3611C62.523 43.4652 64.0227 44.3582 65.6227 44.0269C67.366 43.6333 68.689 42.2555 69.7541 40.8921C65.575 34.5168 63.1582 27.1862 61.2 19.8652C59.6955 15.0021 58.1003 10.0766 55.2872 5.79439C54.1266 4.15256 52.8227 2.40031 50.831 1.76182C47.6167 0.37916 44.2126 1.85495 41.2051 3.15876Z" fill="#0080C5"/>
<path d="M18.6828 16.7159C22.0738 10.7247 26.4249 4.77664 32.7963 1.76662C34.6733 0.753681 36.8608 1.55539 38.1981 3.058C34.3008 5.03108 30.8524 7.89228 28.2446 11.4112C24.9539 15.8566 22.9527 21.0893 21.1091 26.2644C21.0099 26.579 20.9103 26.8937 20.8105 27.2087L20.81 27.2104L20.8089 27.2138C19.6499 30.8733 18.4797 34.5684 18.0093 38.3813C20.7986 30.5947 24.0559 22.9424 28.259 15.8134C31.0864 11.2671 34.4441 6.81693 39.1438 4.09015C42.4489 7.77226 44.3259 12.4961 45.8782 17.1384C47.8173 23.8689 49.9856 30.561 52.8991 36.9363C54.4943 40.4792 57.3314 43.6909 61.1953 44.6798C58.4012 45.0447 55.4591 44.7086 53.1188 43.0236C49.5844 40.5752 47.631 36.4803 46.5086 32.4333C44.8061 26.2822 43.2268 20.097 41.647 13.91L41.6467 13.9087L41.6438 13.8974C41.2569 12.3821 40.8699 10.8667 40.4811 9.35168C33.5796 15.727 30.2267 24.8626 27.3897 33.6095C26.6542 36.9651 24.9348 40.1624 22.1932 42.2795C18.6064 45.0303 13.9974 45.9616 9.57468 46C11.0027 35.837 13.6631 25.7172 18.6828 16.7159Z" fill="#0080C5"/>
<path d="M74.406 36.8355C73.8185 38.1365 73.1881 39.4183 72.4048 40.6137C72.9158 41.4394 73.5224 42.2075 74.1815 42.918C74.5988 42.4922 75.0181 42.0686 75.4382 41.6442L75.4458 41.6365L75.4491 41.6332C75.6601 41.4201 75.8712 41.2068 76.0824 40.9929C75.4902 39.6199 74.9361 38.2325 74.406 36.8355Z" fill="#0080C5"/>
<path d="M66.5251 44.7758C68.149 44.2526 69.706 43.5132 70.9669 42.3371L72.5335 43.8973C70.7758 45.0975 68.5406 45.0015 66.5251 44.7758Z" fill="#0080C5"/>
<path d="M77.2909 42.8364C76.6843 43.2588 76.0825 43.6861 75.4855 44.1182C76.666 44.903 78.0322 44.9214 79.3897 44.9397C79.8008 44.9452 80.211 44.9507 80.6151 44.9775C79.3016 44.6414 78.1315 43.9165 77.2909 42.8364Z" fill="#0080C5"/>
</svg>
