<svg width="81" height="72" viewBox="0 0 81 72" fill="none" xmlns="http://www.w3.org/2000/svg">
<path d="M47.9358 36C47.9358 40.1604 44.5994 43.533 40.4837 43.533C36.368 43.533 33.0316 40.1604 33.0316 36C33.0316 31.8397 36.368 28.4671 40.4837 28.4671C44.5994 28.4671 47.9358 31.8397 47.9358 36Z" fill="#00D8FF"/>
<path fill-rule="evenodd" clip-rule="evenodd" d="M63.6879 22.4176C73.8632 25.5659 80.5 30.6429 80.5 36C80.5 41.3407 73.8958 46.4176 63.7858 49.5659C66.1502 60.0165 65.1229 68.3407 60.5408 71.011C59.4645 71.6374 58.2252 71.9341 56.8555 71.9341C52.3712 71.9341 46.5008 68.7363 40.5652 63.1648C34.6296 68.7692 28.7593 72 24.275 72C22.9052 72 21.6659 71.7033 20.606 71.0769C16.0075 68.4066 14.9639 60.0659 17.3121 49.5824C7.13677 46.4341 0.5 41.3571 0.5 36C0.5 30.6593 7.10416 25.5989 17.2468 22.4341C14.8824 11.9835 15.9097 3.65934 20.4918 0.989011C21.5681 0.362637 22.8074 0.0659343 24.1771 0.0659343C28.6614 0.0659343 34.5318 3.24725 40.4674 8.81868C46.403 3.21429 52.257 0 56.7413 0C58.0948 0 59.3341 0.296703 60.394 0.923077C64.9925 3.59341 66.0361 11.9341 63.6879 22.4176ZM58.6003 4.1044C58.0948 3.82418 57.5077 3.65934 56.7576 3.65934C53.3659 3.65934 48.3761 6.39561 43.0601 11.3901C45.3594 13.8132 47.6423 16.5824 49.8437 19.6319C53.5126 20.0275 57.0022 20.6374 60.1983 21.4286C60.5571 19.7637 60.8506 18.1319 61.03 16.5824C61.7801 10.2857 60.818 5.39011 58.6003 4.1044ZM37.8746 11.4066C32.5587 6.44506 27.5526 3.74176 24.1771 3.74176C23.427 3.74176 22.7911 3.87363 22.3019 4.17033C20.1005 5.47253 19.1547 10.3681 19.9211 16.6648C20.1168 18.1978 20.394 19.7967 20.7691 21.4451C23.9651 20.6374 27.4548 20.0275 31.14 19.6319C33.3088 16.5824 35.5917 13.8297 37.8746 11.4066ZM57.0675 31.5165C57.9154 29.3242 58.6655 27.1319 59.2689 25.0055C57.1327 24.478 54.8987 24.0494 52.5832 23.7033C53.3822 24.956 54.1812 26.2418 54.9313 27.5604C55.6977 28.8791 56.3989 30.1978 57.0675 31.5165ZM47.8706 48.8571C49.224 46.8956 50.5285 44.7857 51.8004 42.5604C53.0234 40.4011 54.1486 38.1923 55.1759 35.9835C54.1486 33.7747 53.0234 31.5824 51.7841 29.4231C50.5122 27.2143 49.1914 25.1209 47.838 23.1593C45.4246 22.9615 42.9623 22.8462 40.5 22.8462C38.0214 22.8462 35.5591 22.9615 33.1294 23.1758C31.776 25.1374 30.4715 27.2472 29.1996 29.4725C27.9766 31.6319 26.8351 33.8407 25.8241 36.0494C26.8514 38.2582 27.9766 40.4505 29.2159 42.6099C30.4878 44.8187 31.8086 46.9121 33.162 48.8736C35.5754 49.0714 38.0377 49.1868 40.5 49.1868C42.9786 49.1868 45.4409 49.0714 47.8706 48.8571ZM59.3178 46.978C58.6981 44.8352 57.948 42.6264 57.0675 40.4176C56.3989 41.7363 55.6977 43.0714 54.9476 44.3901C54.1975 45.7253 53.3985 47.0275 52.5995 48.2967C54.9313 47.9505 57.1816 47.5055 59.3178 46.978ZM35.9994 52.7308C37.4996 54.6593 39.0161 56.4231 40.5326 58.0055C42.0328 56.4231 43.5493 54.6593 45.0169 52.7308C43.533 52.8132 42.0165 52.8462 40.4837 52.8462C38.9672 52.8462 37.467 52.7967 35.9994 52.7308ZM21.7148 46.9945C23.851 47.522 26.085 47.9505 28.4005 48.2967C27.6015 47.044 26.8188 45.7582 26.0524 44.4396C25.286 43.1209 24.5848 41.8022 23.9162 40.4835C23.0683 42.6758 22.3182 44.8681 21.7148 46.9945ZM44.9843 19.2692C43.4841 17.3407 41.9676 15.5769 40.4511 13.9945C38.9509 15.5769 37.4344 17.3407 35.9668 19.2692C37.4507 19.1868 38.9672 19.1538 40.5 19.1538C42.0165 19.1538 43.5167 19.2033 44.9843 19.2692ZM26.0361 27.6099C26.7862 26.2747 27.5852 24.9725 28.3842 23.7033C26.0524 24.0494 23.8021 24.4945 21.6659 25.0055C22.2856 27.1483 23.0357 29.3571 23.9162 31.5659C24.5848 30.2473 25.286 28.9286 26.0361 27.6099ZM4.12006 36C4.12006 38.5879 7.85426 41.8516 13.6268 44.3407C15.0455 44.9506 16.5783 45.511 18.1926 46.022C19.1058 42.8077 20.3125 39.4615 21.8127 36.033C20.2962 32.5879 19.0732 29.2253 18.1437 25.9945C16.562 26.5055 15.0292 27.0494 13.6268 27.6593C7.85426 30.1319 4.12006 33.4121 4.12006 36ZM19.97 55.4176C19.2199 61.7143 20.182 66.6099 22.3997 67.8956C22.8889 68.1758 23.5086 68.3242 24.2424 68.3407C27.6341 68.3407 32.6239 65.6044 37.9399 60.6099C35.6406 58.1868 33.3577 55.4176 31.1563 52.3681C27.4874 51.9725 23.9978 51.3626 20.8017 50.5714C20.4429 52.2363 20.1494 53.8681 19.97 55.4176ZM58.6981 67.8297C60.8995 66.5275 61.8453 61.6319 61.0789 55.3352C60.8995 53.8022 60.606 52.2033 60.2309 50.5385C57.0349 51.3461 53.5453 51.956 49.86 52.3516C47.6912 55.4011 45.4083 58.1538 43.1254 60.5769C48.4413 65.5385 53.4474 68.2582 56.8229 68.2582C57.573 68.2582 58.2089 68.1264 58.6981 67.8297ZM62.84 46.0055C64.4217 45.4945 65.9545 44.9506 67.3569 44.3407C73.1294 41.8681 76.8636 38.5879 76.8799 36C76.8799 33.4121 73.1457 30.1483 67.3732 27.6593C65.9382 27.0494 64.4054 26.489 62.7911 25.978C61.8779 29.1923 60.6712 32.5385 59.171 35.967C60.6875 39.4121 61.9105 42.7747 62.84 46.0055Z" fill="#00D8FF"/>
</svg>
