<svg width="87" height="52" viewBox="0 0 87 52" fill="none" xmlns="http://www.w3.org/2000/svg">
<path d="M61.8158 16.2874L61.9675 13.9339C63.1809 14.0087 64.4323 14.1581 65.7215 14.4196L65.5699 16.7357C64.3185 16.4742 63.0672 16.3247 61.8158 16.2874Z" fill="#C60000"/>
<path d="M48.3165 2.27874H47.9373C46.8376 2.27874 45.738 2.3161 44.6383 2.42817L43.9178 0.224138C45.1692 0.0747128 46.3826 0 47.5581 0L48.3165 2.27874Z" fill="#C60000"/>
<path d="M50.6296 18.6035L49.7574 16.0259C50.7054 15.615 51.8051 15.2041 53.0944 14.8305L53.9286 17.296C52.8289 17.6322 51.7293 18.0805 50.6296 18.6035Z" fill="#C60000"/>
<path d="M30.8356 3.62357L32.542 6.20116C31.5561 6.6868 30.6081 7.24714 29.6222 7.84485L27.8779 5.2299C28.9017 4.63219 29.8876 4.1092 30.8356 3.62357Z" fill="#C60000"/>
<path d="M42.1356 25.7012L40.3155 23.0115C40.998 22.1524 41.7943 21.2932 42.6665 20.5087L44.3729 23.0489C43.5386 23.9081 42.7803 24.7673 42.1356 25.7012Z" fill="#C60000"/>
<path d="M37.8886 37.4311L34.8172 35.0403C35.1205 33.6955 35.4618 32.3133 35.9547 30.9311L38.6849 33.0604C38.3057 34.5173 38.0403 35.9742 37.8886 37.4311Z" fill="#C60000"/>
<path d="M15.5161 14.9799L18.2084 17.296C17.2983 18.2299 16.4262 19.2386 15.6299 20.2472L12.7101 17.7817C13.5822 16.8477 14.5302 15.9138 15.5161 14.9799Z" fill="#C60000"/>
<path d="M2.39598 32.4254L6.75672 33.9943C6.15001 35.3765 5.3537 37.207 4.86074 38.4771L0.5 36.9081C0.879195 35.8995 1.6755 34.0317 2.39598 32.4254Z" fill="#C60000"/>
<path d="M34.7034 49.2357C34.5138 48.1151 34.3242 46.5087 34.2484 44.5288L38.3437 45.9857C38.5712 47.7415 38.9125 49.3852 39.2537 50.8421L34.7034 49.2357Z" fill="#C60000"/>
<path d="M33.1093 52H3.15294C3.15294 52 4.2526 40.9425 12.2157 27.8678C20.1788 14.793 33.754 4.89357 44.8265 3.92231C66.7819 1.75563 86.5 21.1436 86.5 21.1436C86.5 21.1436 85.8554 21.5919 85.1728 22.1522C64.4093 7.02692 51.4339 13.3569 46.8243 15.6056C46.6523 15.6896 46.4919 15.7678 46.3433 15.839C27.3835 26.2614 33.1093 52 33.1093 52Z" fill="#C60000"/>
<path d="M65.7201 3.51139L65.5684 6.01427C64.355 5.52863 63.1416 5.08035 61.8902 4.66943L62.0419 2.20391C64.4309 2.87633 65.3788 3.3246 65.7201 3.51139Z" fill="#C60000"/>
</svg>
